<svg id="Layer_1" data-name="Layer 1" xmlns="http://www.w3.org/2000/svg" xmlns:xlink="http://www.w3.org/1999/xlink" viewBox="0 0 938.3062 857.428"><defs><style>.cls-1{fill:none;stroke-miterlimit:10;stroke-width:21.628px;stroke:url(#linear-gradient);}.cls-2{fill:url(#linear-gradient-2);}.cls-3{fill:url(#linear-gradient-3);}.cls-4{fill:url(#linear-gradient-4);}.cls-5{fill:url(#linear-gradient-5);}.cls-6{fill:url(#linear-gradient-6);}.cls-7{fill:url(#linear-gradient-7);}.cls-8{fill:url(#linear-gradient-8);}.cls-9{fill:url(#linear-gradient-9);}.cls-10{fill:url(#linear-gradient-10);}.cls-11{fill:url(#linear-gradient-11);}.cls-12{fill:url(#linear-gradient-12);}.cls-13{fill:url(#linear-gradient-13);}.cls-14{fill:url(#linear-gradient-14);}.cls-15{fill:url(#linear-gradient-15);}.cls-16{fill:url(#linear-gradient-16);}.cls-17{fill:url(#linear-gradient-17);}.cls-18{fill:url(#linear-gradient-18);}.cls-19{fill-rule:evenodd;fill:url(#linear-gradient-19);}.cls-20{fill:url(#linear-gradient-20);}.cls-21{fill:url(#linear-gradient-21);}.cls-22{fill:url(#linear-gradient-22);}.cls-23{fill:url(#linear-gradient-23);}.cls-24{fill:url(#linear-gradient-24);}.cls-25{fill:url(#linear-gradient-25);}.cls-26{fill:url(#linear-gradient-26);}.cls-27{fill:url(#linear-gradient-27);}.cls-28{fill:url(#linear-gradient-28);}.cls-29{fill:url(#linear-gradient-29);}.cls-30{fill:url(#linear-gradient-30);}.cls-31{fill:url(#linear-gradient-31);}</style><linearGradient id="linear-gradient" x1="40.5661" y1="428.714" x2="897.9941" y2="428.714" gradientUnits="userSpaceOnUse"><stop offset="0" stop-color="#51c2ba"/><stop offset="1" stop-color="#277fc2"/></linearGradient><linearGradient id="linear-gradient-2" x1="477.7998" y1="303.1295" x2="546.075" y2="303.1295" xlink:href="#linear-gradient"/><linearGradient id="linear-gradient-3" x1="502.4" y1="442.05" x2="521.4" y2="442.05" xlink:href="#linear-gradient"/><linearGradient id="linear-gradient-4" x1="505.9" y1="823.4" x2="514.7" y2="823.4" xlink:href="#linear-gradient"/><linearGradient id="linear-gradient-5" x1="496.3" y1="768.736" x2="527.9" y2="768.736" xlink:href="#linear-gradient"/><linearGradient id="linear-gradient-6" x1="502.4" y1="599.95" x2="521.4" y2="599.95" xlink:href="#linear-gradient"/><linearGradient id="linear-gradient-7" x1="502.4" y1="718.4375" x2="521.4" y2="718.4375" xlink:href="#linear-gradient"/><linearGradient id="linear-gradient-8" x1="497.842" y1="666.35" x2="519.1" y2="666.35" xlink:href="#linear-gradient"/><linearGradient id="linear-gradient-9" x1="447.7067" y1="793.05" x2="565.1769" y2="793.05" xlink:href="#linear-gradient"/><linearGradient id="linear-gradient-10" x1="451.6765" y1="695.7501" x2="559.5704" y2="695.7501" xlink:href="#linear-gradient"/><linearGradient id="linear-gradient-11" x1="416.146" y1="518.1428" x2="481.6" y2="518.1428" xlink:href="#linear-gradient"/><linearGradient id="linear-gradient-12" x1="457.9914" y1="740.75" x2="571.6814" y2="740.75" xlink:href="#linear-gradient"/><linearGradient id="linear-gradient-13" x1="540.9" y1="816.3" x2="576.2933" y2="816.3" xlink:href="#linear-gradient"/><linearGradient id="linear-gradient-14" x1="437.5693" y1="559.373" x2="607.6533" y2="559.373" xlink:href="#linear-gradient"/><linearGradient id="linear-gradient-15" x1="465.1746" y1="624.95" x2="587.7301" y2="624.95" xlink:href="#linear-gradient"/><linearGradient id="linear-gradient-16" x1="485.1" y1="672.85" x2="485.2" y2="672.85" xlink:href="#linear-gradient"/><linearGradient id="linear-gradient-17" x1="484.1" y1="697.35" x2="484.7" y2="697.35" xlink:href="#linear-gradient"/><linearGradient id="linear-gradient-18" x1="485.5556" y1="652.15" x2="486.2" y2="652.15" xlink:href="#linear-gradient"/><linearGradient id="linear-gradient-19" x1="539.9" y1="721.1375" x2="539.9" y2="721.1375" xlink:href="#linear-gradient"/><linearGradient id="linear-gradient-20" x1="552.4" y1="451.4714" x2="678.4" y2="451.4714" xlink:href="#linear-gradient"/><linearGradient id="linear-gradient-21" x1="586.2" y1="427.5542" x2="775.6" y2="427.5542" xlink:href="#linear-gradient"/><linearGradient id="linear-gradient-22" x1="617.7999" y1="395.5707" x2="837.0999" y2="395.5707" xlink:href="#linear-gradient"/><linearGradient id="linear-gradient-23" x1="640.3" y1="357.2044" x2="895.1" y2="357.2044" xlink:href="#linear-gradient"/><linearGradient id="linear-gradient-24" x1="659.1" y1="319.5746" x2="927.9677" y2="319.5746" xlink:href="#linear-gradient"/><linearGradient id="linear-gradient-25" x1="345.5" y1="451.4983" x2="471.5" y2="451.4983" xlink:href="#linear-gradient"/><linearGradient id="linear-gradient-26" x1="248.2" y1="427.7511" x2="437.6" y2="427.7511" xlink:href="#linear-gradient"/><linearGradient id="linear-gradient-27" x1="186.5" y1="395.6707" x2="406" y2="395.6707" xlink:href="#linear-gradient"/><linearGradient id="linear-gradient-28" x1="128.7" y1="357.3201" x2="383.6" y2="357.3201" xlink:href="#linear-gradient"/><linearGradient id="linear-gradient-29" x1="95.9908" y1="319.4708" x2="364.8" y2="319.4708" xlink:href="#linear-gradient"/><linearGradient id="linear-gradient-30" x1="42.7199" y1="312.7183" x2="502.4" y2="312.7183" xlink:href="#linear-gradient"/><linearGradient id="linear-gradient-31" x1="521.2001" y1="312.7183" x2="981.0261" y2="312.7183" xlink:href="#linear-gradient"/></defs><g id="_1" data-name="1"><circle class="cls-1" cx="469.2801" cy="428.714" r="417.9"/><path class="cls-2" d="M536.1,327.3a34.2217,34.2217,0,0,0,0-48.3h0c-21.5-21.5-58.3-6.2-58.3,24.2C477.7,333.5,514.6,348.7,536.1,327.3Z" transform="translate(-42.7199 -83.286)"/><path class="cls-3" d="M502.4,350.4V533.7c6.1-1.6,12.4-2.9,19-4.1V350.4A46.7688,46.7688,0,0,1,502.4,350.4Z" transform="translate(-42.7199 -83.286)"/><path class="cls-4" d="M505.9,814.6l4.3,18.3,4.5-18.7c-.9-.1-1.8-.2-2.8-.3Z" transform="translate(-42.7199 -83.286)"/><path class="cls-5" d="M496.3,766.1a104.7631,104.7631,0,0,0,15.6,6,114.08,114.08,0,0,0,16-6c-2.4-.2-5.4-.3-8.9-.3h-.8A106.8912,106.8912,0,0,0,496.3,766.1Z" transform="translate(-42.7199 -83.286)"/><path class="cls-6" d="M502.4,579.2V625c7.1-1.7,13.4-3.4,19-5.1v-45C515.1,576.1,508.6,577.6,502.4,579.2Z" transform="translate(-42.7199 -83.286)"/><path class="cls-7" d="M521.4,712.7a79.9565,79.9565,0,0,0-9.6-1.6c-3.4.4-6.5.9-9.4,1.5v12.8a120.5208,120.5208,0,0,0,19,0Z" transform="translate(-42.7199 -83.286)"/><path class="cls-8" d="M508.2,668.3a99.5634,99.5634,0,0,0,10.9-2c-1.8-.6-4-1.3-6.4-1.9-8.7,1.9-14.6,2.4-14.8,2.9h0C497.3,668.9,501.4,666.2,508.2,668.3Z" transform="translate(-42.7199 -83.286)"/><path class="cls-9" d="M563.5,770.3c2.7-5.5,2-10.7-1.1-16a86.163,86.163,0,0,1-15.3,6.6c1.6,4.3-.1,8.7-4.1,12.2-6.7,5.8-20.5,10.5-36.5,15.2-18.8,5.5-37.4,10.9-48.2,28.5l-5.8,9c-2,3.2-5.4,5.6-4.7,6a8.9272,8.9272,0,0,0,2.9-1.5c4.5-2.7,9.4-7.9,12.6-11.7.1-.2.3-.3.5-.5,21.5-21,38.5-15,55.7-20.1h0C533.9,793.7,556.7,784.2,563.5,770.3Z" transform="translate(-42.7199 -83.286)"/><path class="cls-10" d="M553.1,652.9q-9,3.45-18.3,6c5.7,5.2,4.8,12.6-1.8,16.9-4.1,2.6-11.9,4.9-24.3,6.5A126.6233,126.6233,0,0,0,469.6,699c-10.5,7-22.3,18-16.3,30.7a33.7669,33.7669,0,0,0,6.6,8.9,64.39,64.39,0,0,1,15-7.1c-7.8-6.2-7-15.4,0-21.9a34.99,34.99,0,0,1,8.9-5.6c.4-.2.8-.4,1.3-.6a88.4676,88.4676,0,0,1,25.8-6.3h0c5.4-.8,20.2-4.7,23.4-5.7h0c9.9-3.3,22-10.5,24.8-21.3C560.7,663.6,558.1,657.9,553.1,652.9Z" transform="translate(-42.7199 -83.286)"/><path class="cls-11" d="M452.8,554.5a140.1945,140.1945,0,0,1,28.8-14.2h0c-7.6-.9-16.2-.5-25.1-.6-10-.2-16.2-2.1-19.3-5.4-4.8-5.2-3.4-11.4.7-16.3,4.2-4.9,12.5-9.5,16.9-10.1a15.76,15.76,0,0,0,14-17.4v-.1c-1.2-10.5-23.1-12.1-34.1-.9-2.8,2.9-4.3,6.1-3.9,9.1,1.7,12.7-9.9,13.4-13.6,24.4-3.8,11.3,3.2,19.7,12.6,24.9h0a67.2031,67.2031,0,0,0,23,6.6Z" transform="translate(-42.7199 -83.286)"/><path class="cls-12" d="M555,696.7a62.5909,62.5909,0,0,1-15.1,7.5c7,3.4,13.6,8.5,14.1,16,.3,4.1-1.4,7.9-5.2,11.1-7.3,6.1-21.5,8-32.1,8.5h-.8c-19.4-.6-36.8,3.4-47.7,10.3-17.8,11.2-10.1,23.8,6.1,34.7a121.8824,121.8824,0,0,1,15.9-6.2c-7-3.5-14.1-8.7-12.2-16.4.9-3.5,3.5-6.1,7.7-7.9,6-2.5,17.3-3.6,33-2.7,18.3-.9,33-6,42.4-13.3C578.8,724.7,572.6,708.6,555,696.7Z" transform="translate(-42.7199 -83.286)"/><path class="cls-13" d="M565.6,816.8a48.6342,48.6342,0,0,0-15.9-16c-2.8,1.5-5.8,3-8.8,4.3a58.6917,58.6917,0,0,1,19.3,13l.5.5c3.2,3.8,8.2,9,12.6,11.7a15.9385,15.9385,0,0,0,2.9,1.5c.7-.4-2.7-2.8-4.7-6Z" transform="translate(-42.7199 -83.286)"/><path class="cls-14" d="M606.6,523.1c-3.7-11-15.2-11.8-13.6-24.4.4-3-1.1-6.3-3.9-9.1-10.9-11.3-32.8-9.6-34.1.9A15.8359,15.8359,0,0,0,568.9,508h.1c5.7.7,19,8.1,20.5,17.2a10.2121,10.2121,0,0,1-3.4,9.7c-3,2.7-9.1,4.8-18.8,4.9a274.3451,274.3451,0,0,0-37.3,2.9h0a3.0828,3.0828,0,0,1-1,.1,234.732,234.732,0,0,0-31.2,7,2.3535,2.3535,0,0,1-.8.2c-16.9,5.1-31,11.9-41,19.5-17,12.9-25.7,31.8-10.8,50.1,6,7.4,14.4,13,23,17.3a63.0256,63.0256,0,0,1,17.1-7.8c-11.2-4.1-20.1-8.8-26.9-17.1-9.2-11.3-6.8-23,5.9-32,6.8-4.8,16.6-8.9,27.4-12.2l2.3-.7a302.9432,302.9432,0,0,1,32.4-7.3,4.5292,4.5292,0,0,1,1.6-.3,333.3689,333.3689,0,0,1,38.6-4.7,4.8187,4.8187,0,0,1,1.2,0c7.3.2,19.3-2.9,26.1-6.6h0C603.4,542.8,610.4,534.4,606.6,523.1Z" transform="translate(-42.7199 -83.286)"/><path class="cls-15" d="M575.7,575a57.1471,57.1471,0,0,0-9.9-6.3c-4.1.2-12.6,1-23.1,2.5h0c8.3,3.2,15.4,6.9,20.3,11.2,9.3,8.3,11.6,18,2.3,29.4-4.9,6-12.8,11.4-24.9,16.2l-10.1,3.7c-9.1,3-20,5.9-33.1,8.8-7,1.7-10.6,2.1-17.1,5.5-8.4,4.3-16,11.9-14.8,22.1a21.9966,21.9966,0,0,0,6.8,13.1c4.2-2.2,8.6-4.2,13-6,.1,0,.1,0,.2-.1,1.3-.5,2.7-1.1,4-1.6-4.8-3.9-6-7.6-4.4-11.7a11.786,11.786,0,0,1,1.1-1.9h0a3.7446,3.7446,0,0,1,1.2-1.3h0c4.2-3.9,12.8-5.9,23.7-8.4.3-.1.5-.1.8-.2,20.7-4.7,51.5-11.8,66.8-30.7C591,604.3,591.5,587.9,575.7,575Z" transform="translate(-42.7199 -83.286)"/><path class="cls-16" d="M485.1,675.3c0-1.6.1-3.2.1-4.9l-.1,4.9Z" transform="translate(-42.7199 -83.286)"/><path class="cls-17" d="M484.2,703.8c.2-4.3.3-8.7.5-13a.0979.0979,0,0,0-.1.1l-.5,13C484.1,703.8,484.1,703.8,484.2,703.8Z" transform="translate(-42.7199 -83.286)"/><path class="cls-18" d="M485.6,660.8l.6-17.3c-.1,0-.1.1-.2.1-.2,5.7-.3,11.5-.4,17.2Z" transform="translate(-42.7199 -83.286)"/><path class="cls-19" d="M539.9,721.1Z" transform="translate(-42.7199 -83.286)"/><path class="cls-20" d="M594,427.9c-4.3-4.5-8.4-9.2-12.5-14a145.0046,145.0046,0,0,1-29.1,17.9C563,446.5,574,460.9,588.3,471c14.5,10.5,31.8,16.2,49.6,17.6,14.5,1.5,29.5-.7,40.5-8.3a149.4642,149.4642,0,0,1-26-8.6C629.6,461.9,610.3,445.7,594,427.9Z" transform="translate(-42.7199 -83.286)"/><path class="cls-21" d="M706.3,443.5c-25.5-10.2-48-26-68.8-43-7.9-6.4-15.6-13-23.3-19.5a182.9733,182.9733,0,0,1-28,29c4.2,4.5,8.3,8.9,12.6,13.2,16.5,17,35.3,31.7,57,40.4,21.6,8.8,45.2,11.5,68.6,10.2,11.8-.8,23.6-1.3,33.4-5.5,7.6-3,14-7.8,17.8-14A152.742,152.742,0,0,1,706.3,443.5Z" transform="translate(-42.7199 -83.286)"/><path class="cls-22" d="M757.1,404.1c-28.8-8.1-55.7-21.1-81.5-35.3-13-6.8-25.6-14.7-38.2-22.2-.5.8-1,1.6-1.4,2.4a323.6133,323.6133,0,0,1-18.2,27.3c7.9,6.4,15.8,12.8,23.8,18.9,21,16.2,43.3,30.9,67.8,40,24.4,9.1,50.9,11.8,76.3,7,13.3-2,25.3-5.2,35.1-12.2a46.02,46.02,0,0,0,16.3-21.1C810.4,414.5,782.7,411.3,757.1,404.1Z" transform="translate(-42.7199 -83.286)"/><path class="cls-23" d="M793.6,356.4c-30.6-5.5-60.1-15-89-25.5-16.1-5.6-32-12.2-48-18.2-5.2,9.9-10.7,19.6-16.3,29.1,12.8,7.2,25.3,14.6,38.5,21.1,25.9,13.5,52.7,25.5,80.6,32.6,27.8,7.2,57.3,9.1,84.2.5a114.8342,114.8342,0,0,0,36.8-19.7c7.8-6.7,13.9-16.9,14.7-27q-3.9,1.8-8.1,3.3C856.4,363.6,823.9,361.7,793.6,356.4Z" transform="translate(-42.7199 -83.286)"/><path class="cls-24" d="M922.2,292.6c-30.4,17.2-64.9,19.8-97.7,19.8-52.8-1.3-104.6-10.5-155.2-24.3-.9,1.6-1.8,3.3-2.8,4.9-2.4,5-4.9,10-7.4,15,15.9,5.6,31.6,11.7,47.7,16.8,28.9,9.7,58.3,18.4,88.2,23.1,29.7,4.5,60.8,5.3,88.2-5.2a91.6725,91.6725,0,0,0,35.4-24.3c8.7-8,10.7-18.3,8.6-28.9C925.5,290.5,923.8,291.6,922.2,292.6Z" transform="translate(-42.7199 -83.286)"/><path class="cls-25" d="M471.5,431.8a149.709,149.709,0,0,1-29.1-17.9c-4.1,4.8-8.2,9.5-12.5,14-16.3,17.8-35.6,34-58.4,43.9a149.4642,149.4642,0,0,1-26,8.6c11.1,7.5,26.1,9.7,40.5,8.3,17.8-1.4,35.1-7.1,49.6-17.6C449.9,460.9,460.9,446.5,471.5,431.8Z" transform="translate(-42.7199 -83.286)"/><path class="cls-26" d="M425,423.3c4.2-4.3,8.4-8.8,12.6-13.2a192.0676,192.0676,0,0,1-28-29c-7.7,6.5-15.4,13.1-23.3,19.5-20.8,17-43.3,32.8-68.8,43a154.4462,154.4462,0,0,1-69.3,11c3.8,6.2,10.2,11,17.7,14,9.8,4.3,21.6,4.7,33.4,5.5,23.3,1.3,47-1.5,68.6-10.2C389.7,455.1,408.5,440.3,425,423.3Z" transform="translate(-42.7199 -83.286)"/><path class="cls-27" d="M314.4,435.3c24.5-9.1,46.9-23.7,67.8-40,8-6.1,15.9-12.6,23.8-18.9a323.6618,323.6618,0,0,1-18.2-27.3c-.5-.8-1-1.6-1.4-2.4-12.6,7.5-25.2,15.4-38.2,22.2-25.8,14.2-52.7,27.1-81.5,35.3-25.5,7.2-53.3,10.4-80.2,4.8a46.02,46.02,0,0,0,16.3,21.1c9.8,7.1,21.9,10.2,35.1,12.2A143.61,143.61,0,0,0,314.4,435.3Z" transform="translate(-42.7199 -83.286)"/><path class="cls-28" d="M264.5,395.6c28-7.2,54.7-19.2,80.6-32.6,13.1-6.5,25.7-13.9,38.5-21.1-5.6-9.5-11.1-19.2-16.3-29.1-16,6-31.8,12.6-48,18.2-28.9,10.5-58.4,19.9-89,25.5-30.4,5.3-62.8,7.2-93.5-3.6q-4.05-1.5-8.1-3.3c.8,10,6.9,20.2,14.7,27a115.8887,115.8887,0,0,0,36.8,19.7C207.1,404.7,236.7,402.8,264.5,395.6Z" transform="translate(-42.7199 -83.286)"/><path class="cls-29" d="M228.9,347.8c29.9-4.7,59.3-13.3,88.2-23.1,16-5.2,31.7-11.2,47.7-16.8-2.6-5-5-9.9-7.4-15-.9-1.6-1.9-3.2-2.8-4.9-50.5,13.9-102.4,23.1-155.2,24.3-32.8.1-67.3-2.6-97.7-19.8-1.7-1-3.3-2.1-4.9-3.2-2.2,10.6-.1,20.9,8.6,28.9a92.7661,92.7661,0,0,0,35.4,24.3C168.1,353.1,199.2,352.3,228.9,347.8Z" transform="translate(-42.7199 -83.286)"/><path class="cls-30" d="M489.4,425.1c5,2.8,9.3,4.9,13,6.6v2.7a143.31,143.31,0,0,1-44-18.6,128.1359,128.1359,0,0,1-15.8-12.3,111.9366,111.9366,0,0,1-14.8-16.9,136.7213,136.7213,0,0,1-12.3-21.2,172.4746,172.4746,0,0,1-9-24.4,249.1926,249.1926,0,0,1-6-26.5c-1.4-9.1-2.6-18.3-3.5-27.6-.9-9.2-1.7-18.5-2.6-27.9-1-9.2-2-18.4-4.2-26.3a36.5937,36.5937,0,0,0-4.1-10.1,10.5113,10.5113,0,0,0-5-4.7c-3.9-1.9-12.1-1.4-20.2.9-8.3,2.3-16.9,6-25.3,9.9-3.1,1.4-6.2,2.9-9.2,4.4,3.2,9.8,6.9,19.5,11,29a24.4115,24.4115,0,0,0,1.5,5.6c-53.8,13.5-109.1,21.9-164.2,22-34.5-.6-70.4-4.7-99.2-21.9-13.7-8.5-26.4-21.7-30-36.1a86.697,86.697,0,0,1-2.3-30.8C57,220.6,78,233.5,99,242.5c4,1,8.3,2,12.7,2.9a255.4339,255.4339,0,0,0,39.1,4.7,282.3382,282.3382,0,0,0,46.2-1.7A310.7455,310.7455,0,0,0,247.3,238a348.4635,348.4635,0,0,0,51.5-19.4l6.4-2.8,6.4-3.2c4.4-2.2,8.7-4.4,13.1-6.6a175.347,175.347,0,0,1,29.4-11.9,83.1929,83.1929,0,0,1,17.3-3,44.6909,44.6909,0,0,1,20.4,3.5,37.2421,37.2421,0,0,1,9.4,6.4,40.37,40.37,0,0,1,6.7,8.5,61.2456,61.2456,0,0,1,6.7,16.9c2.6,10.9,3.4,20.9,4.1,30.7.6,9.7.9,19.1,1.4,28.1.9,18.2,2.3,35.4,5.5,51.1,3.2,15.8,8.3,30.1,15.1,42.1a100.4439,100.4439,0,0,0,11.2,16.4,121.5387,121.5387,0,0,0,12.6,13.1A142.1826,142.1826,0,0,0,489.4,425.1Z" transform="translate(-42.7199 -83.286)"/><path class="cls-31" d="M978.3,231.6c-3.5,14.4-16.2,27.6-30,36.1-28.7,17.3-64.7,21.4-99.1,21.9-55.2-.1-110.4-8.5-164.3-22a21.198,21.198,0,0,0,1.5-5.6c4.1-9.6,7.8-19.2,11.1-29-3.1-1.4-6.2-2.9-9.3-4.4-8.4-3.9-17-7.6-25.3-9.9-8.2-2.3-16.3-2.8-20.1-.9a11.006,11.006,0,0,0-5.1,4.8,39.9669,39.9669,0,0,0-4.1,10.1c-2.2,7.9-3.2,17.1-4.2,26.3-.8,9.4-1.7,18.7-2.6,27.9-1,9.3-2,18.5-3.5,27.6a254.6609,254.6609,0,0,1-5.9,26.5,172.7618,172.7618,0,0,1-9.1,24.4,129.5368,129.5368,0,0,1-12.4,21.2,106.649,106.649,0,0,1-14.8,16.9,109.023,109.023,0,0,1-15.8,12.3,123.8315,123.8315,0,0,1-28.8,14.1,130.6607,130.6607,0,0,1-15.3,4.5v-2.6h.2c3.6-1.6,8-3.8,13-6.5a149.764,149.764,0,0,0,24.8-17.4,112.0423,112.0423,0,0,0,12.5-13.1A97.9846,97.9846,0,0,0,583,378.5c6.9-12.1,11.9-26.4,15.1-42.1,3.2-15.8,4.7-33,5.5-51.1.5-9.1.9-18.5,1.4-28.2.7-9.7,1.5-19.8,4.1-30.7a61.2488,61.2488,0,0,1,6.7-16.9,43.3489,43.3489,0,0,1,6.7-8.4,40.4561,40.4561,0,0,1,9.4-6.5,44.6909,44.6909,0,0,1,20.4-3.5,83.0984,83.0984,0,0,1,17.3,3.1A159.721,159.721,0,0,1,699,206c4.4,2.2,8.7,4.4,13.1,6.6l6.3,3.2,6.5,2.9A367.0044,367.0044,0,0,0,776.4,238a308.0184,308.0184,0,0,0,50.3,10.3,292.8416,292.8416,0,0,0,46.1,1.8,269.5878,269.5878,0,0,0,39.1-4.8c4.5-1,8.7-1.9,12.7-2.9,21-9.1,42-22,55.7-41.8A79.02,79.02,0,0,1,978.3,231.6Z" transform="translate(-42.7199 -83.286)"/></g></svg>