<svg id="Layer_1" data-name="Layer 1" xmlns="http://www.w3.org/2000/svg" xmlns:xlink="http://www.w3.org/1999/xlink" viewBox="0 0 266.622 47.7279"><defs><style>.cls-1{fill:none;stroke-miterlimit:10;stroke-width:1.2039px;stroke:url(#linear-gradient);}.cls-2{fill:url(#linear-gradient-2);}.cls-3{fill:url(#linear-gradient-3);}.cls-4{fill:url(#linear-gradient-4);}.cls-5{fill:url(#linear-gradient-5);}.cls-6{fill:url(#linear-gradient-6);}.cls-7{fill:url(#linear-gradient-7);}.cls-8{fill:url(#linear-gradient-8);}.cls-9{fill:url(#linear-gradient-9);}.cls-10{fill:url(#linear-gradient-10);}.cls-11{fill:url(#linear-gradient-11);}.cls-12{fill:url(#linear-gradient-12);}.cls-13{fill:url(#linear-gradient-13);}.cls-14{fill:url(#linear-gradient-14);}.cls-15{fill:url(#linear-gradient-15);}.cls-16{fill:url(#linear-gradient-16);}.cls-17{fill:url(#linear-gradient-17);}.cls-18{fill:url(#linear-gradient-18);}.cls-19{fill-rule:evenodd;fill:url(#linear-gradient-19);}.cls-20{fill:url(#linear-gradient-20);}.cls-21{fill:url(#linear-gradient-21);}.cls-22{fill:url(#linear-gradient-22);}.cls-23{fill:url(#linear-gradient-23);}.cls-24{fill:url(#linear-gradient-24);}.cls-25{fill:url(#linear-gradient-25);}.cls-26{fill:url(#linear-gradient-26);}.cls-27{fill:url(#linear-gradient-27);}.cls-28{fill:url(#linear-gradient-28);}.cls-29{fill:url(#linear-gradient-29);}.cls-30{fill:url(#linear-gradient-30);}.cls-31{fill:url(#linear-gradient-31);}.cls-32{fill:url(#linear-gradient-32);}.cls-33{fill:url(#linear-gradient-33);}.cls-34{fill:url(#linear-gradient-34);}.cls-35{fill:url(#linear-gradient-35);}.cls-36{fill:url(#linear-gradient-36);}.cls-37{fill:url(#linear-gradient-37);}.cls-38{fill:url(#linear-gradient-38);}.cls-39{fill:url(#linear-gradient-39);}.cls-40{fill:url(#linear-gradient-40);}.cls-41{fill:url(#linear-gradient-41);}.cls-42{fill:url(#linear-gradient-42);}.cls-43{fill:url(#linear-gradient-43);}.cls-44{fill:url(#linear-gradient-44);}.cls-45{fill:url(#linear-gradient-45);}.cls-46{fill:url(#linear-gradient-46);}.cls-47{fill:url(#linear-gradient-47);}</style><linearGradient id="linear-gradient" x1="2.2581" y1="23.864" x2="49.986" y2="23.864" gradientUnits="userSpaceOnUse"><stop offset="0" stop-color="#51c2ba"/><stop offset="1" stop-color="#277fc2"/></linearGradient><linearGradient id="linear-gradient-2" x1="26.5963" y1="16.8734" x2="30.3968" y2="16.8734" xlink:href="#linear-gradient"/><linearGradient id="linear-gradient-3" x1="27.9656" y1="24.6063" x2="29.0232" y2="24.6063" xlink:href="#linear-gradient"/><linearGradient id="linear-gradient-4" x1="28.1604" y1="45.8338" x2="28.6503" y2="45.8338" xlink:href="#linear-gradient"/><linearGradient id="linear-gradient-5" x1="27.6261" y1="42.791" x2="29.3851" y2="42.791" xlink:href="#linear-gradient"/><linearGradient id="linear-gradient-6" x1="27.9656" y1="33.3957" x2="29.0232" y2="33.3957" xlink:href="#linear-gradient"/><linearGradient id="linear-gradient-7" x1="27.9656" y1="39.9912" x2="29.0232" y2="39.9912" xlink:href="#linear-gradient"/><linearGradient id="linear-gradient-8" x1="27.7119" y1="37.0917" x2="28.8952" y2="37.0917" xlink:href="#linear-gradient"/><linearGradient id="linear-gradient-9" x1="24.9212" y1="44.1444" x2="31.46" y2="44.1444" xlink:href="#linear-gradient"/><linearGradient id="linear-gradient-10" x1="25.1421" y1="38.7283" x2="31.148" y2="38.7283" xlink:href="#linear-gradient"/><linearGradient id="linear-gradient-11" x1="23.1644" y1="28.8419" x2="26.8078" y2="28.8419" xlink:href="#linear-gradient"/><linearGradient id="linear-gradient-12" x1="25.4937" y1="41.2332" x2="31.8221" y2="41.2332" xlink:href="#linear-gradient"/><linearGradient id="linear-gradient-13" x1="30.1087" y1="45.4386" x2="32.0788" y2="45.4386" xlink:href="#linear-gradient"/><linearGradient id="linear-gradient-14" x1="24.3569" y1="31.137" x2="33.8245" y2="31.137" xlink:href="#linear-gradient"/><linearGradient id="linear-gradient-15" x1="25.8935" y1="34.7873" x2="32.7154" y2="34.7873" xlink:href="#linear-gradient"/><linearGradient id="linear-gradient-16" x1="27.0026" y1="37.4536" x2="27.0082" y2="37.4536" xlink:href="#linear-gradient"/><linearGradient id="linear-gradient-17" x1="26.947" y1="38.8173" x2="26.9804" y2="38.8173" xlink:href="#linear-gradient"/><linearGradient id="linear-gradient-18" x1="27.028" y1="36.3013" x2="27.0639" y2="36.3013" xlink:href="#linear-gradient"/><linearGradient id="linear-gradient-19" x1="30.053" y1="40.1414" x2="30.053" y2="40.1414" xlink:href="#linear-gradient"/><linearGradient id="linear-gradient-20" x1="30.7488" y1="25.1307" x2="37.7625" y2="25.1307" xlink:href="#linear-gradient"/><linearGradient id="linear-gradient-21" x1="32.6303" y1="23.7994" x2="43.173" y2="23.7994" xlink:href="#linear-gradient"/><linearGradient id="linear-gradient-22" x1="34.3893" y1="22.0191" x2="46.5964" y2="22.0191" xlink:href="#linear-gradient"/><linearGradient id="linear-gradient-23" x1="35.6417" y1="19.8835" x2="49.8249" y2="19.8835" xlink:href="#linear-gradient"/><linearGradient id="linear-gradient-24" x1="36.6882" y1="17.7888" x2="51.6544" y2="17.7888" xlink:href="#linear-gradient"/><linearGradient id="linear-gradient-25" x1="19.2319" y1="25.1322" x2="26.2456" y2="25.1322" xlink:href="#linear-gradient"/><linearGradient id="linear-gradient-26" x1="13.8158" y1="23.8104" x2="24.3586" y2="23.8104" xlink:href="#linear-gradient"/><linearGradient id="linear-gradient-27" x1="10.3813" y1="22.0246" x2="22.5996" y2="22.0246" xlink:href="#linear-gradient"/><linearGradient id="linear-gradient-28" x1="7.164" y1="19.8899" x2="21.3527" y2="19.8899" xlink:href="#linear-gradient"/><linearGradient id="linear-gradient-29" x1="5.3432" y1="17.783" x2="20.3062" y2="17.783" xlink:href="#linear-gradient"/><linearGradient id="linear-gradient-30" x1="2.378" y1="17.4072" x2="27.9656" y2="17.4072" xlink:href="#linear-gradient"/><linearGradient id="linear-gradient-31" x1="29.0121" y1="17.4072" x2="54.6079" y2="17.4072" xlink:href="#linear-gradient"/><linearGradient id="linear-gradient-32" x1="61.1471" y1="28.3531" x2="84.5554" y2="28.3531" xlink:href="#linear-gradient"/><linearGradient id="linear-gradient-33" x1="84.5554" y1="30.8002" x2="96.932" y2="30.8002" xlink:href="#linear-gradient"/><linearGradient id="linear-gradient-34" x1="99.1068" y1="28.414" x2="105.027" y2="28.414" xlink:href="#linear-gradient"/><linearGradient id="linear-gradient-35" x1="107.0071" y1="28.414" x2="112.9273" y2="28.414" xlink:href="#linear-gradient"/><linearGradient id="linear-gradient-36" x1="114.9325" y1="30.6533" x2="127.5288" y2="30.6533" xlink:href="#linear-gradient"/><linearGradient id="linear-gradient-37" x1="129.5352" y1="30.8002" x2="141.9118" y2="30.8002" xlink:href="#linear-gradient"/><linearGradient id="linear-gradient-38" x1="143.1587" y1="30.8002" x2="153.481" y2="30.8002" xlink:href="#linear-gradient"/><linearGradient id="linear-gradient-39" x1="154.6789" y1="30.8002" x2="165.0013" y2="30.8002" xlink:href="#linear-gradient"/><linearGradient id="linear-gradient-40" x1="172.314" y1="30.8002" x2="182.6364" y2="30.8002" xlink:href="#linear-gradient"/><linearGradient id="linear-gradient-41" x1="184.0779" y1="30.8002" x2="198.3617" y2="30.8002" xlink:href="#linear-gradient"/><linearGradient id="linear-gradient-42" x1="200.4661" y1="28.414" x2="206.3863" y2="28.414" xlink:href="#linear-gradient"/><linearGradient id="linear-gradient-43" x1="208.2685" y1="30.9459" x2="220.743" y2="30.9459" xlink:href="#linear-gradient"/><linearGradient id="linear-gradient-44" x1="222.6993" y1="29.1604" x2="231.3568" y2="29.1604" xlink:href="#linear-gradient"/><linearGradient id="linear-gradient-45" x1="233.6331" y1="28.3531" x2="237.8645" y2="28.3531" xlink:href="#linear-gradient"/><linearGradient id="linear-gradient-46" x1="239.9916" y1="30.8002" x2="254.2754" y2="30.8002" xlink:href="#linear-gradient"/><linearGradient id="linear-gradient-47" x1="256.4037" y1="30.6533" x2="269" y2="30.6533" xlink:href="#linear-gradient"/></defs><g id="Color_vertical_logo" data-name="Color vertical logo"><g id="_1" data-name="1"><circle class="cls-1" cx="26.122" cy="23.864" r="23.262"/><path class="cls-2" d="M29.8415,18.2188a1.9049,1.9049,0,0,0,0-2.6885h0a1.901,1.901,0,1,0,0,2.6885Z" transform="translate(-2.378 -4.636)"/><path class="cls-3" d="M27.9656,19.5047V29.7079c.34-.0891.69-.1614,1.0576-.2282v-9.975A2.602,2.602,0,0,1,27.9656,19.5047Z" transform="translate(-2.378 -4.636)"/><path class="cls-4" d="M28.16,45.3439,28.4,46.3626l.2505-1.0409c-.05-.0056-.1-.0112-.1559-.0167Z" transform="translate(-2.378 -4.636)"/><path class="cls-5" d="M27.6261,42.6442a5.8219,5.8219,0,0,0,.8683.334,6.3426,6.3426,0,0,0,.8907-.334c-.1336-.0111-.3006-.0167-.4955-.0167h-.0445A5.9564,5.9564,0,0,0,27.6261,42.6442Z" transform="translate(-2.378 -4.636)"/><path class="cls-6" d="M27.9656,32.2406V34.79c.3952-.0946.7459-.1892,1.0576-.2838V32.0013C28.6726,32.0681,28.3107,32.1516,27.9656,32.2406Z" transform="translate(-2.378 -4.636)"/><path class="cls-7" d="M29.0232,39.6718a4.4488,4.4488,0,0,0-.5343-.0891c-.1893.0223-.3618.05-.5233.0835v.7125a6.7162,6.7162,0,0,0,1.0576,0Z" transform="translate(-2.378 -4.636)"/><path class="cls-8" d="M28.2885,37.2a5.5361,5.5361,0,0,0,.6067-.1113c-.1-.0334-.2226-.0724-.3562-.1058-.4843.1058-.8127.1336-.8239.1614h0C27.6817,37.2337,27.91,37.0834,28.2885,37.2Z" transform="translate(-2.378 -4.636)"/><path class="cls-9" d="M31.3667,42.878a.8834.8834,0,0,0-.0612-.8906,4.7961,4.7961,0,0,1-.8517.3674.609.609,0,0,1-.2282.6791,6.2184,6.2184,0,0,1-2.0317.8461,4.1666,4.1666,0,0,0-2.6831,1.5864l-.3228.501c-.1113.1781-.3006.3117-.2616.334a.4988.4988,0,0,0,.1614-.0835,3.2646,3.2646,0,0,0,.7014-.6513c.0055-.0111.0167-.0167.0278-.0278,1.1968-1.169,2.1431-.835,3.1005-1.1189h0A4.2456,4.2456,0,0,0,31.3667,42.878Z" transform="translate(-2.378 -4.636)"/><path class="cls-10" d="M30.7878,36.3431q-.501.192-1.0187.334a.5634.5634,0,0,1-.1.9407,3.6093,3.6093,0,0,1-1.3526.3618,7.05,7.05,0,0,0-2.1765.93c-.5844.39-1.2413,1.0019-.9073,1.7089a1.88,1.88,0,0,0,.3674.4954,3.581,3.581,0,0,1,.835-.3952.7557.7557,0,0,1,0-1.2191,1.9457,1.9457,0,0,1,.4954-.3117c.0222-.0111.0445-.0223.0723-.0334a4.9283,4.9283,0,0,1,1.4362-.3507h0c.3006-.0445,1.1244-.2616,1.3025-.3173h0a2.03,2.03,0,0,0,1.3805-1.1856A.985.985,0,0,0,30.7878,36.3431Z" transform="translate(-2.378 -4.636)"/><path class="cls-11" d="M25.2047,30.8657a7.8073,7.8073,0,0,1,1.6031-.79h0c-.423-.05-.9017-.0278-1.3972-.0334a1.5209,1.5209,0,0,1-1.0743-.3006.6476.6476,0,0,1,.039-.9073,1.9242,1.9242,0,0,1,.9407-.5622.8773.8773,0,0,0,.7793-.9686v-.0055c-.0668-.5845-1.2858-.6736-1.8981-.05a.6366.6366,0,0,0-.2171.5065c.0946.7069-.5511.7459-.7571,1.3582a1.1459,1.1459,0,0,0,.7014,1.386h0a3.74,3.74,0,0,0,1.28.3674Z" transform="translate(-2.378 -4.636)"/><path class="cls-12" d="M30.8936,38.7812a3.4871,3.4871,0,0,1-.8406.4174,1.19,1.19,0,0,1,.7849.8907.7214.7214,0,0,1-.29.6178,3.33,3.33,0,0,1-1.7868.4732h-.0445a4.8878,4.8878,0,0,0-2.6552.5733c-.9908.6235-.5622,1.3248.34,1.9316a6.7969,6.7969,0,0,1,.885-.3452c-.39-.1948-.7848-.4842-.6791-.9129a.67.67,0,0,1,.4286-.44,4.6934,4.6934,0,0,1,1.8369-.15,4.22,4.22,0,0,0,2.36-.74C32.2184,40.34,31.8732,39.4436,30.8936,38.7812Z" transform="translate(-2.378 -4.636)"/><path class="cls-13" d="M31.4836,45.4664a2.7074,2.7074,0,0,0-.8851-.8906c-.1558.0835-.3228.167-.49.2393a3.2668,3.2668,0,0,1,1.0743.7237l.0278.0278a3.4012,3.4012,0,0,0,.7014.6513.891.891,0,0,0,.1614.0835c.039-.0223-.15-.1559-.2616-.334Z" transform="translate(-2.378 -4.636)"/><path class="cls-14" d="M33.7658,29.1179c-.2059-.6123-.8461-.6569-.757-1.3582a.63.63,0,0,0-.2171-.5066c-.6067-.629-1.8258-.5344-1.8981.05a.8814.8814,0,0,0,.7737.9741h.0056c.3172.039,1.0576.4509,1.1411.9575a.5684.5684,0,0,1-.1893.54,1.6294,1.6294,0,0,1-1.0465.2728,15.2583,15.2583,0,0,0-2.0762.1614h0a.1707.1707,0,0,1-.0557.0056,13.0535,13.0535,0,0,0-1.7367.39.1305.1305,0,0,1-.0446.0111,7.327,7.327,0,0,0-2.2822,1.0855c-.9463.7181-1.4306,1.77-.6012,2.7888a3.8455,3.8455,0,0,0,1.28.9629,3.5084,3.5084,0,0,1,.9519-.4341,3.2511,3.2511,0,0,1-1.4974-.9519,1.1231,1.1231,0,0,1,.3284-1.7812,5.5646,5.5646,0,0,1,1.5252-.6791l.128-.039a16.8658,16.8658,0,0,1,1.8036-.4064.2525.2525,0,0,1,.089-.0167,18.577,18.577,0,0,1,2.1487-.2616.2715.2715,0,0,1,.0668,0,3.4835,3.4835,0,0,0,1.4528-.3674h0A1.1617,1.1617,0,0,0,33.7658,29.1179Z" transform="translate(-2.378 -4.636)"/><path class="cls-15" d="M32.0458,32.0068a3.1774,3.1774,0,0,0-.5511-.3506c-.2282.0111-.7013.0556-1.2858.1391h0a3.8307,3.8307,0,0,1,1.13.6235,1.0541,1.0541,0,0,1,.128,1.6365,3.3121,3.3121,0,0,1-1.386.9017l-.5622.206c-.5066.167-1.1133.3284-1.8425.49a3.3987,3.3987,0,0,0-.9519.3062,1.2831,1.2831,0,0,0-.8238,1.23,1.2245,1.2245,0,0,0,.3785.7292c.2338-.1225.4787-.2338.7236-.334.0056,0,.0056,0,.0112-.0056.0723-.0278.15-.0612.2226-.0891-.2672-.217-.334-.423-.2449-.6512a.66.66,0,0,1,.0612-.1058h0A.2088.2088,0,0,1,27.12,36.66h0a3.2354,3.2354,0,0,1,1.3193-.4676c.0167-.0056.0278-.0056.0445-.0112,1.1522-.2616,2.8667-.6568,3.7184-1.7088A1.5846,1.5846,0,0,0,32.0458,32.0068Z" transform="translate(-2.378 -4.636)"/><path class="cls-16" d="M27.0026,37.59c0-.089.0056-.1781.0056-.2727l-.0056.2727Z" transform="translate(-2.378 -4.636)"/><path class="cls-17" d="M26.9525,39.1764c.0112-.2394.0167-.4843.0279-.7237a.0055.0055,0,0,0-.0056.0056l-.0278.7236C26.947,39.1764,26.947,39.1764,26.9525,39.1764Z" transform="translate(-2.378 -4.636)"/><path class="cls-18" d="M27.0305,36.7828l.0334-.963c-.0056,0-.0056.0056-.0112.0056-.0111.3173-.0167.64-.0222.9574Z" transform="translate(-2.378 -4.636)"/><path class="cls-19" d="M30.053,40.1394Z" transform="translate(-2.378 -4.636)"/><path class="cls-20" d="M33.0645,23.8187c-.2394-.25-.4676-.5122-.6958-.7793a8.0738,8.0738,0,0,1-1.62.9963,9.0444,9.0444,0,0,0,1.9984,2.1821,5.4118,5.4118,0,0,0,2.7609.98,3.3955,3.3955,0,0,0,2.2544-.462,8.3182,8.3182,0,0,1-1.4473-.4788A9.7069,9.7069,0,0,1,33.0645,23.8187Z" transform="translate(-2.378 -4.636)"/><path class="cls-21" d="M39.3155,24.687a14.8821,14.8821,0,0,1-3.83-2.3935c-.44-.3563-.8683-.7237-1.2969-1.0855A10.1891,10.1891,0,0,1,32.63,22.8223c.2338.2505.462.4954.7013.7347a9.3648,9.3648,0,0,0,3.1729,2.2489,8.81,8.81,0,0,0,3.8185.5677,5.8089,5.8089,0,0,0,1.8592-.3061,2.0046,2.0046,0,0,0,.9908-.7793A8.5023,8.5023,0,0,1,39.3155,24.687Z" transform="translate(-2.378 -4.636)"/><path class="cls-22" d="M42.1433,22.4938a21.625,21.625,0,0,1-4.5367-1.9649c-.7236-.3785-1.425-.8183-2.1263-1.2357-.0279.0445-.0557.089-.078.1336a18.0518,18.0518,0,0,1-1.013,1.52c.44.3562.8794.7125,1.3248,1.052a14.6446,14.6446,0,0,0,3.774,2.2266,7.9634,7.9634,0,0,0,4.2471.39,4.4193,4.4193,0,0,0,1.9539-.6791,2.5618,2.5618,0,0,0,.9073-1.1745A9.4122,9.4122,0,0,1,42.1433,22.4938Z" transform="translate(-2.378 -4.636)"/><path class="cls-23" d="M44.175,19.8387a30.208,30.208,0,0,1-4.9541-1.4195c-.8962-.3117-1.7813-.6791-2.6719-1.013-.2894.551-.5956,1.091-.9073,1.62.7125.4008,1.4083.8127,2.1431,1.1745a21.0541,21.0541,0,0,0,4.4865,1.8146,8.4931,8.4931,0,0,0,4.6869.0279,6.3917,6.3917,0,0,0,2.0484-1.0966,2.3367,2.3367,0,0,0,.8183-1.5029q-.2171.1-.4509.1836A10.1308,10.1308,0,0,1,44.175,19.8387Z" transform="translate(-2.378 -4.636)"/><path class="cls-24" d="M51.3334,16.2873A10.8177,10.8177,0,0,1,45.895,17.39a36.2152,36.2152,0,0,1-8.639-1.3527c-.05.0891-.1.1837-.1559.2728-.1336.2783-.2728.5566-.4119.8349.885.3118,1.759.6513,2.6552.9352a30.3575,30.3575,0,0,0,4.9095,1.2858,9.7434,9.7434,0,0,0,4.91-.2894,5.1029,5.1029,0,0,0,1.9705-1.3527,1.6361,1.6361,0,0,0,.4787-1.6087C51.5171,16.17,51.4225,16.2316,51.3334,16.2873Z" transform="translate(-2.378 -4.636)"/><path class="cls-25" d="M26.2456,24.0357a8.3288,8.3288,0,0,1-1.62-.9963c-.2282.2671-.4565.5288-.6958.7793a9.7976,9.7976,0,0,1-3.2508,2.4436,8.3178,8.3178,0,0,1-1.4473.4787,3.4757,3.4757,0,0,0,2.2544.462,5.4106,5.4106,0,0,0,2.761-.98A9.1719,9.1719,0,0,0,26.2456,24.0357Z" transform="translate(-2.378 -4.636)"/><path class="cls-26" d="M23.6572,23.5626c.2338-.2394.4676-.49.7014-.7348A10.6936,10.6936,0,0,1,22.8,21.2136c-.4286.3618-.8572.7292-1.297,1.0854a14.8763,14.8763,0,0,1-3.83,2.3936,8.5975,8.5975,0,0,1-3.8575.6123,2.0151,2.0151,0,0,0,.9853.7793A5.6612,5.6612,0,0,0,16.66,26.39a8.9067,8.9067,0,0,0,3.8185-.5677A9.4391,9.4391,0,0,0,23.6572,23.5626Z" transform="translate(-2.378 -4.636)"/><path class="cls-27" d="M17.5008,24.2306a14.4035,14.4035,0,0,0,3.774-2.2266c.4453-.34.8851-.7014,1.3248-1.052a18.0141,18.0141,0,0,1-1.0131-1.52c-.0278-.0445-.0556-.089-.0779-.1336-.7014.4175-1.4027.8573-2.1264,1.2358a21.92,21.92,0,0,1-4.5366,1.9649,9.447,9.447,0,0,1-4.4643.2672,2.5619,2.5619,0,0,0,.9074,1.1745,4.3755,4.3755,0,0,0,1.9538.6791A7.9942,7.9942,0,0,0,17.5008,24.2306Z" transform="translate(-2.378 -4.636)"/><path class="cls-28" d="M14.7231,22.0207A21.5315,21.5315,0,0,0,19.21,20.2061c.7292-.3619,1.43-.7738,2.143-1.1746-.3117-.5288-.6178-1.0687-.9073-1.62-.8906.334-1.77.7014-2.6719,1.0131a30.7567,30.7567,0,0,1-4.9541,1.4194,10.2709,10.2709,0,0,1-5.2046-.2Q7.39,19.56,7.164,19.46a2.3633,2.3633,0,0,0,.8182,1.5029A6.45,6.45,0,0,0,10.0307,22.06,8.62,8.62,0,0,0,14.7231,22.0207Z" transform="translate(-2.378 -4.636)"/><path class="cls-29" d="M12.7415,19.36a29.7987,29.7987,0,0,0,4.91-1.2859c.8906-.2894,1.7645-.6234,2.6551-.9351-.1447-.2784-.2783-.5511-.4119-.835-.05-.0891-.1057-.1781-.1558-.2728a35.6188,35.6188,0,0,1-8.6391,1.3527A10.7575,10.7575,0,0,1,5.661,16.2817c-.0946-.0556-.1837-.1169-.2727-.1781a1.624,1.624,0,0,0,.4787,1.6087,5.1639,5.1639,0,0,0,1.9705,1.3526A9.656,9.656,0,0,0,12.7415,19.36Z" transform="translate(-2.378 -4.636)"/><path class="cls-30" d="M27.242,23.6628c.2783.1559.5177.2727.7236.3674v.15a6.5423,6.5423,0,0,1-.8461-.25,6.4769,6.4769,0,0,1-1.6031-.7849,7.1372,7.1372,0,0,1-.88-.6846,6.23,6.23,0,0,1-.8238-.9408,7.6031,7.6031,0,0,1-.6847-1.18,9.6013,9.6013,0,0,1-.501-1.3582,13.8666,13.8666,0,0,1-.3339-1.4751c-.078-.5065-.1448-1.0186-.1949-1.5363-.05-.5121-.0946-1.03-.1447-1.553a9.4755,9.4755,0,0,0-.2338-1.464,2.0342,2.0342,0,0,0-.2282-.5622.5854.5854,0,0,0-.2783-.2616,1.8862,1.8862,0,0,0-1.1244.05,9.4229,9.4229,0,0,0-1.4083.5511c-.1726.0779-.3452.1614-.5122.2449.1782.5455.3841,1.0854.6124,1.6143a1.3537,1.3537,0,0,0,.0835.3117,37.997,37.997,0,0,1-9.14,1.2246,11.16,11.16,0,0,1-5.5219-1.2191,3.66,3.66,0,0,1-1.67-2.0094,4.8274,4.8274,0,0,1-.128-1.7145,7.1111,7.1111,0,0,0,3.106,2.3156c.2227.0557.4621.1114.707.1615a14.2223,14.2223,0,0,0,2.1764.2616,15.73,15.73,0,0,0,2.5717-.0946,17.3027,17.3027,0,0,0,2.8-.579,19.3875,19.3875,0,0,0,2.8667-1.08l.3563-.1559.3562-.1781c.2449-.1225.4843-.2449.7292-.3674a9.761,9.761,0,0,1,1.6365-.6624,4.6329,4.6329,0,0,1,.963-.167,2.4887,2.4887,0,0,1,1.1356.1948,2.0747,2.0747,0,0,1,.5232.3563,2.2457,2.2457,0,0,1,.373.4731,3.41,3.41,0,0,1,.3729.9407,10.2477,10.2477,0,0,1,.2282,1.7089c.0334.54.05,1.0632.078,1.5642a19.1967,19.1967,0,0,0,.3061,2.8444,7.9793,7.9793,0,0,0,.8406,2.3435,5.5916,5.5916,0,0,0,.6234.9129,6.7712,6.7712,0,0,0,.7014.7292A7.9131,7.9131,0,0,0,27.242,23.6628Z" transform="translate(-2.378 -4.636)"/><path class="cls-31" d="M54.4562,12.8918a3.6152,3.6152,0,0,1-1.67,2.01A11.0192,11.0192,0,0,1,47.27,16.12a38.0367,38.0367,0,0,1-9.1456-1.2246,1.1792,1.1792,0,0,0,.0835-.3117c.2282-.5344.4342-1.0688.6179-1.6143-.1726-.0779-.3451-.1614-.5177-.2449A9.4422,9.4422,0,0,0,36.9,12.1737a1.8682,1.8682,0,0,0-1.1188-.05.6123.6123,0,0,0-.2839.2672,2.2226,2.2226,0,0,0-.2282.5622,9.4635,9.4635,0,0,0-.2338,1.464c-.0446.5232-.0947,1.0409-.1448,1.553-.0556.5177-.1113,1.03-.1948,1.5363a14.1729,14.1729,0,0,1-.3284,1.4751,9.6294,9.6294,0,0,1-.5065,1.3582,7.2089,7.2089,0,0,1-.69,1.18,5.9387,5.9387,0,0,1-.8238.9408,6.072,6.072,0,0,1-.88.6846,6.89,6.89,0,0,1-1.6031.7849,7.293,7.293,0,0,1-.8517.25v-.1448h.0111c.2-.089.4454-.2115.7237-.3618a8.3364,8.3364,0,0,0,1.38-.9685,6.2387,6.2387,0,0,0,.6958-.7292,5.457,5.457,0,0,0,.6291-.9074,7.94,7.94,0,0,0,.8405-2.3434,18.6294,18.6294,0,0,0,.3061-2.8444c.0279-.5066.05-1.03.078-1.57a10.3248,10.3248,0,0,1,.2282-1.7089,3.41,3.41,0,0,1,.3729-.9407,2.4165,2.4165,0,0,1,.373-.4676,2.2547,2.2547,0,0,1,.5232-.3618,2.4887,2.4887,0,0,1,1.1356-.1948,4.6276,4.6276,0,0,1,.963.1726,8.8933,8.8933,0,0,1,1.6365.6568c.2449.1225.4843.2449.7292.3674l.3507.1781.3618.1614a20.418,20.418,0,0,0,2.8667,1.0743,17.1394,17.1394,0,0,0,2.8.5734,16.3076,16.3076,0,0,0,2.5661.1,15.0014,15.0014,0,0,0,2.1765-.2672c.25-.0557.4842-.1058.7069-.1614a7.0894,7.0894,0,0,0,3.1005-2.3268A4.399,4.399,0,0,1,54.4562,12.8918Z" transform="translate(-2.378 -4.636)"/></g><path class="cls-32" d="M65.4036,37.0978,61.1471,19.6084h4.5013L67.85,30.5435c.0645.3248.1182.64.1588.9411a5.5506,5.5506,0,0,1,.0609.6736v.22h.049a8.83,8.83,0,0,1,.2938-1.8344l2.6908-10.9351h3.4479l2.6179,10.9351c.0812.3248.1469.64.1947.9411s.0824.5255.0979.6736v.22h.049a9.37,9.37,0,0,1,.221-1.8344l2.3969-10.9351h4.4273L80.1281,37.0978h-4.77L73.157,28.2671l-.3428-2.0542h-.049a13.455,13.455,0,0,1-.3415,2.0542l-2.2023,8.8307Z" transform="translate(-2.378 -4.636)"/><path class="cls-33" d="M84.5554,30.7871a6.5448,6.5448,0,0,1,1.7855-4.708,6.2852,6.2852,0,0,1,4.77-1.87,5.4941,5.4941,0,0,1,4.2673,1.6983,6.2578,6.2578,0,0,1,1.5538,4.39c0,.2938-.0335.7333-.098,1.3209H88.8847a2.5767,2.5767,0,0,0,1.0391,1.6768,3.2267,3.2267,0,0,0,1.8954.5733,6.4245,6.4245,0,0,0,3.4742-1.2707l1.5645,2.9594A7.3175,7.3175,0,0,1,94.4,36.9019a9.0875,9.0875,0,0,1-2.9224.49,6.6535,6.6535,0,0,1-5.0639-1.9563A6.5219,6.5219,0,0,1,84.5554,30.7871Zm4.4273-1.5908H92.75a1.9532,1.9532,0,0,0-.4777-1.3448,1.6018,1.6018,0,0,0-1.2588-.5374Q89.3988,27.3141,88.9827,29.1963Z" transform="translate(-2.378 -4.636)"/><path class="cls-34" d="M99.1068,32.45V19.6084h4.2314v12.28a2.4291,2.4291,0,0,0,.2329,1.2708,1.0678,1.0678,0,0,0,.9411.3439,4.2029,4.2029,0,0,0,.5148-.0262v3.6689c-.5876.05-1.0116.074-1.272.074a8.05,8.05,0,0,1-1.7007-.1576,4.4862,4.4862,0,0,1-1.4427-.6235,2.9479,2.9479,0,0,1-1.1131-1.469A6.9706,6.9706,0,0,1,99.1068,32.45Z" transform="translate(-2.378 -4.636)"/><path class="cls-35" d="M107.0071,32.45V19.6084h4.2314v12.28a2.43,2.43,0,0,0,.2329,1.2708,1.0678,1.0678,0,0,0,.9411.3439,4.2029,4.2029,0,0,0,.5148-.0262v3.6689c-.5876.05-1.0116.074-1.272.074a8.0518,8.0518,0,0,1-1.7007-.1576,4.4862,4.4862,0,0,1-1.4427-.6235,2.9479,2.9479,0,0,1-1.1131-1.469A6.9706,6.9706,0,0,1,107.0071,32.45Z" transform="translate(-2.378 -4.636)"/><path class="cls-36" d="M114.9325,37.0978V24.5h4.0606v1.1011l-.0489.7835h.0489a4.3391,4.3391,0,0,1,4.0105-2.176q4.5252,0,4.5252,4.72v8.169h-4.2314V29.7122q0-1.666-1.3938-1.6648a2.3664,2.3664,0,0,0-2.0422.9554,3.9426,3.9426,0,0,0-.6975,2.3958v5.6992Z" transform="translate(-2.378 -4.636)"/><path class="cls-37" d="M129.5352,30.7871a6.5448,6.5448,0,0,1,1.7855-4.708,6.2856,6.2856,0,0,1,4.77-1.87,5.4938,5.4938,0,0,1,4.2672,1.6983,6.2573,6.2573,0,0,1,1.5538,4.39c0,.2938-.0334.7333-.0979,1.3209h-7.9493a2.5765,2.5765,0,0,0,1.039,1.6768,3.2267,3.2267,0,0,0,1.8954.5733,6.4243,6.4243,0,0,0,3.4742-1.2707l1.5646,2.9594a7.3175,7.3175,0,0,1-2.4579,1.3448,9.0881,9.0881,0,0,1-2.9225.49,6.6533,6.6533,0,0,1-5.0638-1.9563A6.522,6.522,0,0,1,129.5352,30.7871Zm4.4273-1.5908h3.7669a1.9532,1.9532,0,0,0-.4778-1.3448,1.6015,1.6015,0,0,0-1.2588-.5374Q134.3788,27.3141,133.9625,29.1963Z" transform="translate(-2.378 -4.636)"/><path class="cls-38" d="M143.1587,35.5333l1.81-2.7637a5.1842,5.1842,0,0,0,3.4241,1.2708q1.1483,0,1.1489-.6593c0-.246-.203-.461-.6115-.65a15.6559,15.6559,0,0,0-1.4666-.5732,14.4259,14.4259,0,0,1-1.7245-.7238,4.0259,4.0259,0,0,1-1.48-1.2588,3.2428,3.2428,0,0,1-.6115-1.98,3.3956,3.3956,0,0,1,1.48-2.9356,6.3159,6.3159,0,0,1,3.7537-1.051,6.9282,6.9282,0,0,1,4.5013,1.4427l-1.4439,2.9332a4.4461,4.4461,0,0,0-1.4547-.7333,5.6625,5.6625,0,0,0-1.7246-.2938c-.7822,0-1.174.2054-1.174.6115q0,.2937.4407.5517a4.7422,4.7422,0,0,0,1.0881.4395,11.7651,11.7651,0,0,1,1.4188.5136,10.6827,10.6827,0,0,1,1.4188.7333,3.3526,3.3526,0,0,1,1.5287,2.85,3.68,3.68,0,0,1-1.4069,2.9714,5.7411,5.7411,0,0,1-3.7787,1.1633A7.422,7.422,0,0,1,143.1587,35.5333Z" transform="translate(-2.378 -4.636)"/><path class="cls-39" d="M154.6789,35.5333,156.49,32.77a5.184,5.184,0,0,0,3.424,1.2708q1.1484,0,1.149-.6593c0-.246-.2031-.461-.6115-.65a15.6669,15.6669,0,0,0-1.4666-.5732,14.4272,14.4272,0,0,1-1.7246-.7238,4.0256,4.0256,0,0,1-1.48-1.2588,3.2422,3.2422,0,0,1-.6115-1.98,3.3955,3.3955,0,0,1,1.48-2.9356,6.3159,6.3159,0,0,1,3.7537-1.051,6.928,6.928,0,0,1,4.5013,1.4427l-1.4439,2.9332a4.4455,4.4455,0,0,0-1.4546-.7333,5.663,5.663,0,0,0-1.7246-.2938c-.7823,0-1.174.2054-1.174.6115q0,.2937.4407.5517a4.7431,4.7431,0,0,0,1.088.4395,11.7589,11.7589,0,0,1,1.4188.5136,10.6841,10.6841,0,0,1,1.4189.7333,3.3526,3.3526,0,0,1,1.5287,2.85,3.68,3.68,0,0,1-1.4069,2.9714,5.7412,5.7412,0,0,1-3.7788,1.1633A7.422,7.422,0,0,1,154.6789,35.5333Z" transform="translate(-2.378 -4.636)"/><path class="cls-40" d="M172.314,35.5333l1.8106-2.7637a5.1838,5.1838,0,0,0,3.424,1.2708q1.1484,0,1.1489-.6593c0-.246-.203-.461-.6114-.65a15.6778,15.6778,0,0,0-1.4666-.5732,14.4272,14.4272,0,0,1-1.7246-.7238,4.0259,4.0259,0,0,1-1.48-1.2588,3.2428,3.2428,0,0,1-.6114-1.98,3.3955,3.3955,0,0,1,1.48-2.9356,6.3159,6.3159,0,0,1,3.7537-1.051,6.928,6.928,0,0,1,4.5013,1.4427l-1.4439,2.9332a4.4461,4.4461,0,0,0-1.4547-.7333,5.6619,5.6619,0,0,0-1.7245-.2938c-.7823,0-1.174.2054-1.174.6115q0,.2937.4407.5517a4.7413,4.7413,0,0,0,1.088.4395,11.7589,11.7589,0,0,1,1.4188.5136,10.6766,10.6766,0,0,1,1.4188.7333,3.3524,3.3524,0,0,1,1.5288,2.85,3.68,3.68,0,0,1-1.4069,2.9714,5.7416,5.7416,0,0,1-3.7788,1.1633A7.422,7.422,0,0,1,172.314,35.5333Z" transform="translate(-2.378 -4.636)"/><path class="cls-41" d="M186.1321,35.5691a6.0265,6.0265,0,0,1-2.0542-4.7318,6.1406,6.1406,0,0,1,2.0542-4.77,7.2677,7.2677,0,0,1,5.0638-1.8583,7.371,7.371,0,0,1,5.1,1.8464,6.1139,6.1139,0,0,1,2.0661,4.782,6.0265,6.0265,0,0,1-2.0542,4.7318,8.0127,8.0127,0,0,1-10.1754,0Zm2.2262-4.7318a2.9737,2.9737,0,0,0,.8312,2.2,2.8952,2.8952,0,0,0,4.0606,0,2.9738,2.9738,0,0,0,.8313-2.2,3.0991,3.0991,0,0,0-.8313-2.2525,2.8379,2.8379,0,0,0-4.0606,0A3.0991,3.0991,0,0,0,188.3583,30.8373Z" transform="translate(-2.378 -4.636)"/><path class="cls-42" d="M200.4661,32.45V19.6084h4.2314v12.28a2.43,2.43,0,0,0,.2329,1.2708,1.0678,1.0678,0,0,0,.9411.3439,4.2029,4.2029,0,0,0,.5148-.0262v3.6689c-.5876.05-1.0116.074-1.272.074a8.0518,8.0518,0,0,1-1.7007-.1576,4.4862,4.4862,0,0,1-1.4427-.6235,2.9479,2.9479,0,0,1-1.1131-1.469A6.9706,6.9706,0,0,1,200.4661,32.45Z" transform="translate(-2.378 -4.636)"/><path class="cls-43" d="M208.2685,32.6717V24.5H212.5v7.3879q0,1.6626,1.346,1.6625a2.2593,2.2593,0,0,0,1.9813-.9913,4.2579,4.2579,0,0,0,.6844-2.4817V24.5h4.2314V37.0978h-4.0595V35.9966l.049-.781h-.049a3.7377,3.7377,0,0,1-1.5908,1.5884,4.821,4.821,0,0,1-2.348.5876,4.6332,4.6332,0,0,1-3.2652-1.1131A4.6976,4.6976,0,0,1,208.2685,32.6717Z" transform="translate(-2.378 -4.636)"/><path class="cls-44" d="M224.3128,32.45V28.0235h-1.6135V24.7224h1.7365V21.1013h4.1084v3.6211h2.6418v3.3011h-2.6418v3.8647q0,1.6123,2.25,1.6147c.1959,0,.3834-.0095.5626-.0262v3.6689c-.6354.05-1.0188.074-1.149.074a10.3264,10.3264,0,0,1-1.1369-.06,11.0586,11.0586,0,0,1-1.272-.2341,4.503,4.503,0,0,1-1.297-.5135,5.7728,5.7728,0,0,1-1.088-.8432,3.4385,3.4385,0,0,1-.8073-1.309A5.2619,5.2619,0,0,1,224.3128,32.45Z" transform="translate(-2.378 -4.636)"/><path class="cls-45" d="M233.6331,37.0978V24.5h4.2314V37.0978Zm.049-14.1859V19.6084h4.1334v3.3035Z" transform="translate(-2.378 -4.636)"/><path class="cls-46" d="M242.0458,35.5691a6.0265,6.0265,0,0,1-2.0542-4.7318,6.1406,6.1406,0,0,1,2.0542-4.77,7.2677,7.2677,0,0,1,5.0638-1.8583,7.371,7.371,0,0,1,5.1,1.8464,6.1139,6.1139,0,0,1,2.0661,4.782,6.0265,6.0265,0,0,1-2.0542,4.7318,8.0127,8.0127,0,0,1-10.1754,0Zm2.2262-4.7318a2.9737,2.9737,0,0,0,.8312,2.2,2.8952,2.8952,0,0,0,4.0606,0,2.9738,2.9738,0,0,0,.8313-2.2,3.0991,3.0991,0,0,0-.8313-2.2525,2.8379,2.8379,0,0,0-4.0606,0A3.0991,3.0991,0,0,0,244.272,30.8373Z" transform="translate(-2.378 -4.636)"/><path class="cls-47" d="M256.4037,37.0978V24.5h4.0606v1.1011l-.049.7835h.049a4.3391,4.3391,0,0,1,4.0105-2.176q4.5252,0,4.5252,4.72v8.169h-4.2314V29.7122q0-1.666-1.3938-1.6648a2.3664,2.3664,0,0,0-2.0422.9554,3.9426,3.9426,0,0,0-.6975,2.3958v5.6992Z" transform="translate(-2.378 -4.636)"/></g></svg>